<svg xmlns="http://www.w3.org/2000/svg" width="302.116" height="50" viewBox="0 0 302.116 50"><defs><style>.a{fill:#fff;}.b{fill:#0071ce;fill-rule:evenodd;}</style></defs><g transform="translate(1045.783 44.18)"><g transform="translate(-985.456 -28.802)"><path class="a" d="M-875.549,8.686h-3.894v5.555h-2.192V-.656h6.235c2.745,0,4.788,1.575,4.788,4.66C-870.612,7.068-872.655,8.686-875.549,8.686Zm.107-7.235h-4V6.579h4A2.317,2.317,0,0,0-872.889,4,2.349,2.349,0,0,0-875.442,1.451Z" transform="translate(881.635 1.273)"/><path class="a" d="M-842.964,20.483c-2.809,0-4.915-2.32-4.915-5.81,0-3.66,2.17-5.831,4.979-5.831,2.851,0,4.979,2.276,4.979,5.767C-837.92,18.311-840.091,20.483-842.964,20.483Zm-.022-9.556c-1.659,0-2.681,1.469-2.681,3.682,0,2.447,1.128,3.788,2.788,3.788s2.745-1.681,2.745-3.724C-840.133,12.4-841.219,10.927-842.986,10.927Z" transform="translate(860.285 -4.734)"/><path class="a" d="M-813.721,13.179V-1.186l2.193-1.149V13.179Z" transform="translate(838.68 2.335)"/><path class="a" d="M-798.4.669a1.421,1.421,0,0,1-1.426-1.4A1.426,1.426,0,0,1-798.4-2.161a1.422,1.422,0,0,1,1.405,1.426A1.417,1.417,0,0,1-798.4.669Zm-1.106,12.62V2.116h2.191V13.289Z" transform="translate(829.89 2.225)"/><path class="a" d="M-780.711,12.9a4.452,4.452,0,0,1-2.149.512c-1.554,0-2.511-.957-2.511-2.959V4.007h-1.6v-2h1.6V-1.186l2.149-1.149V2.006h2.767v2h-2.767v6.065c0,1.042.341,1.341,1.149,1.341a3.5,3.5,0,0,0,1.617-.447Z" transform="translate(821.759 2.335)"/><path class="a" d="M-759.652,20.483a7.622,7.622,0,0,1-4.277-1.426l1-1.66a5.864,5.864,0,0,0,3.255,1.107c1.383,0,2.043-.448,2.043-1.235,0-.85-.978-1.255-2.6-1.872-2.4-.936-3.277-1.745-3.277-3.512,0-2,1.574-3.043,3.809-3.043a6.65,6.65,0,0,1,3.787,1.234l-.958,1.681a4.86,4.86,0,0,0-2.894-.958c-1.064,0-1.531.426-1.531,1.021,0,.553.383.958,2.064,1.618,2.49.958,3.766,1.639,3.766,3.746C-755.46,19.652-757.46,20.483-759.652,20.483Z" transform="translate(807.188 -4.734)"/><path class="a" d="M-726.316,15.439H-733.7c.234,2.149,1.447,3.064,2.809,3.064a3.914,3.914,0,0,0,2.425-.894l1.3,1.4a5.191,5.191,0,0,1-3.852,1.469c-2.618,0-4.831-2.107-4.831-5.81,0-3.788,2-5.831,4.895-5.831,3.171,0,4.7,2.575,4.7,5.6C-726.251,14.843-726.294,15.2-726.316,15.439Zm-4.787-4.618c-1.469,0-2.362,1.021-2.554,2.809h5.193C-728.571,12.1-729.294,10.821-731.1,10.821Z" transform="translate(789.428 -4.734)"/><path class="a" d="M-702.058.669a1.422,1.422,0,0,1-1.425-1.4,1.426,1.426,0,0,1,1.425-1.426,1.421,1.421,0,0,1,1.4,1.426A1.417,1.417,0,0,1-702.058.669Zm-1.106,12.62V2.116h2.191V13.289Z" transform="translate(768.957 2.225)"/><path class="a" d="M-689.354,17.9V15.731h5.32V17.9Z" transform="translate(760.02 -9.091)"/><path class="a" d="M-658.156,17.4l-.745-1.66c2.043-.574,2.342-1,2.342-2.915V2.116h2.191V12.778C-654.368,15.587-655.07,16.759-658.156,17.4Zm2.7-16.727a1.42,1.42,0,0,1-1.425-1.4,1.425,1.425,0,0,1,1.425-1.426,1.421,1.421,0,0,1,1.4,1.426A1.417,1.417,0,0,1-655.453.669Z" transform="translate(740.759 2.225)"/><path class="a" d="M-632.564,20.249V19.141a4.392,4.392,0,0,1-3.064,1.341,3.6,3.6,0,0,1-3.873-3.767c0-2.489,1.915-3.618,4.448-3.618a6.165,6.165,0,0,1,2.489.425v-.829c0-1.213-.744-1.894-2.106-1.894a5.642,5.642,0,0,0-2.916.7l-.851-1.66a6.932,6.932,0,0,1,3.831-1c2.49,0,4.192,1.213,4.192,3.745v7.662Zm0-4.768a5.529,5.529,0,0,0-2.553-.489c-1.4,0-2.3.639-2.3,1.66,0,1.106.7,1.852,2.148,1.852a3.512,3.512,0,0,0,2.7-1.426Z" transform="translate(728.489 -4.734)"/><path class="a" d="M-584.78,8.686h-3.893v5.555h-2.193V-.656h6.236c2.744,0,4.788,1.575,4.788,4.66C-579.843,7.068-581.886,8.686-584.78,8.686Zm.107-7.235h-4V6.579h4A2.315,2.315,0,0,0-582.121,4,2.348,2.348,0,0,0-584.673,1.451Z" transform="translate(697.728 1.273)"/><path class="a" d="M-553.657.669a1.42,1.42,0,0,1-1.424-1.4,1.425,1.425,0,0,1,1.424-1.426,1.422,1.422,0,0,1,1.4,1.426A1.417,1.417,0,0,1-553.657.669Zm-1.105,12.62V2.116h2.191V13.289Z" transform="translate(675.095 2.225)"/><path class="a" d="M-538.891.669a1.421,1.421,0,0,1-1.426-1.4,1.425,1.425,0,0,1,1.426-1.426,1.421,1.421,0,0,1,1.4,1.426A1.417,1.417,0,0,1-538.891.669ZM-540,13.289V2.116h2.192V13.289Z" transform="translate(665.757 2.225)"/><path class="a" d="M-518.911,11.4a3.265,3.265,0,0,0-1.681-.405c-1.383,0-2.192.98-2.192,2.874v6.384h-2.193V9.075h2.193V10.14a3.1,3.1,0,0,1,2.554-1.3,3.215,3.215,0,0,1,1.893.468Z" transform="translate(656.055 -4.734)"/><path class="a" d="M-500.505.669a1.421,1.421,0,0,1-1.426-1.4,1.426,1.426,0,0,1,1.426-1.426A1.422,1.422,0,0,1-499.1-.735,1.417,1.417,0,0,1-500.505.669Zm-1.106,12.62V2.116h2.192V13.289Z" transform="translate(641.478 2.225)"/><path class="a" d="M-482.883,20.65h-2.191l-4-11.173h2.3l2,6.065c.363,1.085.683,2.128.831,2.744.128-.617.426-1.659.766-2.744l1.915-6.065h2.32Z" transform="translate(633.347 -5.136)"/><path class="a" d="M-451.918,20.249V19.141a4.4,4.4,0,0,1-3.064,1.341,3.6,3.6,0,0,1-3.872-3.767c0-2.489,1.914-3.618,4.446-3.618a6.176,6.176,0,0,1,2.49.425v-.829c0-1.213-.745-1.894-2.108-1.894a5.641,5.641,0,0,0-2.915.7l-.851-1.66a6.93,6.93,0,0,1,3.83-1c2.49,0,4.192,1.213,4.192,3.745v7.662Zm0-4.768a5.539,5.539,0,0,0-2.555-.489c-1.4,0-2.3.639-2.3,1.66,0,1.106.7,1.852,2.149,1.852a3.516,3.516,0,0,0,2.7-1.426Z" transform="translate(614.233 -4.734)"/><path class="a" d="M-425.854,13.179V-1.186l2.192-1.149V13.179Z" transform="translate(593.361 2.335)"/><path class="a" d="M-407.676,20.65h-2.19l-4-11.173h2.3l2,6.065c.363,1.085.682,2.128.83,2.744.128-.617.426-1.659.766-2.744l1.916-6.065h2.32Z" transform="translate(585.78 -5.136)"/><path class="a" d="M-373.536,15.439h-7.384c.234,2.149,1.447,3.064,2.808,3.064a3.92,3.92,0,0,0,2.428-.894l1.3,1.4a5.189,5.189,0,0,1-3.851,1.469c-2.618,0-4.831-2.107-4.831-5.81,0-3.788,2-5.831,4.894-5.831,3.17,0,4.7,2.575,4.7,5.6C-373.472,14.843-373.514,15.2-373.536,15.439Zm-4.788-4.618c-1.469,0-2.362,1.021-2.553,2.809h5.193C-375.792,12.1-376.515,10.821-378.324,10.821Z" transform="translate(566.3 -4.734)"/><path class="a" d="M-345.044,20.249V19.141a4.4,4.4,0,0,1-3.064,1.341,3.6,3.6,0,0,1-3.873-3.767c0-2.489,1.914-3.618,4.447-3.618a6.173,6.173,0,0,1,2.49.425v-.829c0-1.213-.745-1.894-2.108-1.894a5.637,5.637,0,0,0-2.915.7l-.851-1.66a6.929,6.929,0,0,1,3.83-1c2.49,0,4.192,1.213,4.192,3.745v7.662Zm0-4.768a5.536,5.536,0,0,0-2.555-.489c-1.4,0-2.3.639-2.3,1.66,0,1.106.7,1.852,2.149,1.852a3.514,3.514,0,0,0,2.7-1.426Z" transform="translate(546.637 -4.734)"/><path class="a" d="M-306.289,20.249V13.928c0-2.256-.7-3.064-2.149-3.064-1.469,0-2.149,1.043-2.149,2.852v6.534h-2.193V13.928c0-2.256-.7-3.064-2.149-3.064-1.468,0-2.148,1.043-2.148,2.852v6.534h-2.193V9.075h2.193V10.14a3.132,3.132,0,0,1,2.66-1.3,3.183,3.183,0,0,1,3.064,1.638,3.9,3.9,0,0,1,3.426-1.638c2.6,0,3.831,1.7,3.831,5v6.406Z" transform="translate(525.948 -4.734)"/><path class="a" d="M-261.91,15.439H-269.3c.234,2.149,1.448,3.064,2.81,3.064a3.92,3.92,0,0,0,2.426-.894l1.3,1.4a5.191,5.191,0,0,1-3.852,1.469c-2.617,0-4.831-2.107-4.831-5.81,0-3.788,2-5.831,4.895-5.831,3.171,0,4.7,2.575,4.7,5.6C-261.847,14.843-261.888,15.2-261.91,15.439Zm-4.788-4.618c-1.469,0-2.364,1.021-2.555,2.809h5.193C-264.166,12.1-264.89,10.821-266.7,10.821Z" transform="translate(495.699 -4.734)"/><path class="a" d="M-235.2,12.9a4.452,4.452,0,0,1-2.149.512c-1.554,0-2.511-.957-2.511-2.959V4.007h-1.6v-2h1.6V-1.186l2.15-1.149V2.006h2.766v2h-2.766v6.065c0,1.042.34,1.341,1.148,1.341a3.508,3.508,0,0,0,1.617-.447Z" transform="translate(476.73 2.335)"/></g><path class="a" d="M-1005.784-39.8l-.054,15a38.623,38.623,0,0,1-3.044,14.294c-1.628,3.762-4.158,6.792-7.2,9.916a25.018,25.018,0,0,1-9.544,6.405c-1.33-.124-4.255-1.985-5.386-2.44a33.288,33.288,0,0,1-10.4-11.494,33.448,33.448,0,0,1-2.9-6.811,59.675,59.675,0,0,1-1.471-8.753V-39.79c8.347-3.57,18.3-5.527,28.038-3.686a42.479,42.479,0,0,1,11.962,3.676Z"/><path class="b" d="M-1031.077-22.819a7.9,7.9,0,0,1-.529-3.792,10.366,10.366,0,0,1,.32-1.314c.358-.735.9-.9,1.407-.66-.729-1.054-1.669-1.781-1.678-2.047a4.264,4.264,0,0,1-1.576-.081,6.581,6.581,0,0,0-2.3-.5,2.379,2.379,0,0,0-1.033.467,2.95,2.95,0,0,0-2.984-.123,3.551,3.551,0,0,1-1.995.2,3.137,3.137,0,0,1-.717.971c-.451.226-1.085.226-1.273.908a.949.949,0,0,1,1.1.323,3.67,3.67,0,0,1,.649,1.967c.377,3.141-.627,4.461-1.511,5.122.031.236.326.931.358,1.165,1.083,2.343,2.089,2.585,2.76,2.239,1.8-.2,2.089.249,3.578,1.746,1.25-1.173,2.709-1.056,4.017-1.524a4.355,4.355,0,0,0,2.235-2.241,4.213,4.213,0,0,0,.312-1.178A3.739,3.739,0,0,1-1031.077-22.819Zm.911-5.521a.382.382,0,0,0-.386.373.381.381,0,0,0,.386.374.383.383,0,0,0,.391-.374A.385.385,0,0,0-1030.166-28.339Zm-12.535.219a.381.381,0,0,0-.389-.373.383.383,0,0,0-.391.373.383.383,0,0,0,.391.373A.381.381,0,0,0-1042.7-28.121Z" transform="translate(-1.456 -8.198)"/><path class="a" d="M-1033.524-4.962c-.028,0-.028,0-.028.03h-.031c0-.03.031-.09-.034-.12h-.031c-.093.03-.031.09-.062.12h-.031c-.034-.03,0-.03-.034-.03l-.031.061c.031.059,0,.119.065.178h.093c.031,0,.065.031.1,0C-1033.493-4.809-1033.488-4.96-1033.524-4.962Zm-.251.361c-.031.028-.031.028-.031.06a.473.473,0,0,0,.127.09.2.2,0,0,0,.128-.031c.062-.029.028-.059.028-.09A.662.662,0,0,0-1033.775-4.6Zm1.939-.535a4.289,4.289,0,0,0,1.564-.272c.093-.028.207-.017.3-.048.022.041.07-.058.07-.055a2.522,2.522,0,0,1,.466-.337c-.586.112-1.282.382-1.609.434a1.19,1.19,0,0,1-.779.037.273.273,0,0,1-.2-.221c0-.062,0-.09.062-.121h.065c.031,0,.031,0,.063.03.062.028.031.09,0,.118a.031.031,0,0,0,.031.034.225.225,0,0,0,.126-.034c.126,0,.126-.089.219-.118a.937.937,0,0,0,.286-.061,3.324,3.324,0,0,0,.345-.173v-.031a1.772,1.772,0,0,1-.565-.06,1.415,1.415,0,0,0-.617.008c-.32.166-.272.338-.262.537A.6.6,0,0,0-1031.836-5.137Zm4.1,1.621h.065c0-.05-.017-.067-.017-.129s-.234-.188-.429-.241c-.172-.218.36-.017.281-.147-.193-.216-.41-.062-.494-.158-.067-.073.19,0,.222-.073.017-.042-.083-.148-.11-.172-.093-.06-.331.012-.458-.047a.812.812,0,0,1-.189-.36,1.2,1.2,0,0,0,.516-.152.433.433,0,0,0,.135-.478c-.076-.232-.544-.287-.734-.438-.031-.089-.059-.182.035-.24-.148,0-.155.054-.274.105-.033.061-.029.106-.065.185a.931.931,0,0,0-.25.15c.031-.032-.241.3-.179.265.1-.029.152-.011.211-.037.041-.015.075,0,.117-.035.071-.055.069-.1.145-.127s-.1.119-.068.138c.062.048.086.094.172.026.034-.031.084-.116.124-.128.013.015-.131.2.093.249.031,0,.038,0,.069,0,0-.03-.007-.03.024-.063,0-.028.058-.054.12-.054a.146.146,0,0,1,.1.023c.062.026.141.079.141.14.029.059-.1.127-.214.169a1.64,1.64,0,0,1-.66-.059,2.394,2.394,0,0,0-1.158.09c-.125.029-.222.063-.315.093a4.389,4.389,0,0,1-1.185.11c-.1-.028-.3-.034-.4-.063a1.25,1.25,0,0,1-.286-.069.5.5,0,0,1-.2-.363c0-.1.14.254.16.192a.429.429,0,0,0,0-.35c-.1-.218.019-.34-.011-.554,0-.031,0-.061-.065-.061h-.155c-.1,0-.126-.06-.22-.09a1.3,1.3,0,0,1-.4-.108.247.247,0,0,0-.212-.006c-.125.088-.358.049-.484.17-.06.029-.156-.028-.249,0-.133.148-.007.4-.073.576a.5.5,0,0,0-.048.355.3.3,0,0,0,.141-.049c-.01.083-.226.257-.257.393h-.095c-.282-.185-.6-.38-.665-.644.065-.209.286-.421.065-.63a.209.209,0,0,0-.065-.18c-.029,0-.062-.032-.092-.032,0,.064.03.122,0,.184h-.063c-.062-.031-.031-.018-.1-.018-.063-.028-.063-.116-.186-.149h-.031c-.034,0-.065,0-.065.033a.03.03,0,0,1,.031.029c.1.059.1.121.034.208-.065.029-.041.068-.107.1h-.031c-.062,0-.062-.06-.127-.06-.031,0-.091,0-.091.032s0,.028.032.028c.186.12-.093.209.034.358a.546.546,0,0,0,.138.086c.031,0,.059-.033.093-.033h.06a.206.206,0,0,1,.033.147.15.15,0,0,1-.094.029c-.034,0-.034-.029-.062-.029l-.062.029c-.034,0-.034.021-.034.079,0,0,0,.033-.062.033l-.095-.033a.166.166,0,0,0,.063.153c.128.03.128.1.218.164.034.029.09.015.124.015.091-.033.081-.061.145-.09,0,0,.11.013.11.044.031.061.059.094.024.154-.031.03-.031.03-.124.061a.111.111,0,0,1-.064-.031h-.061c.061.09.045.122.107.182.176.061.42-.015.489.028.03.018.073.033.09.07-.1-.043-.352-.052-.4,0-.014.018.1.131.121.141.148.065.426-.008.434.031.041.019.131.073.1.073-.082,0-.334-.072-.379-.006s.1.251.52.169c.04-.008.08.055.114.069a1.676,1.676,0,0,0-.295.02.524.524,0,0,0,.209.245,2.492,2.492,0,0,1-.725.393.347.347,0,0,1-.24.011.475.475,0,0,0-.282-.03c-.093.061-.158.122-.158.181a.7.7,0,0,0-.136.2c.06.118-.084.18-.084.3a.031.031,0,0,0,.034.031v-.031c.062-.028.093-.06.159-.06h.062c.06-.028.127-.066.131.024.033.058-.062.121-.031.179h.031a.087.087,0,0,1,.033-.058.44.44,0,0,1,.219-.062c.127.03.09-.018.186-.048h.094c.091.06.06.089,0,.151h.06c.127-.029.031-.137.224-.137.188-.089.033-.274.156-.362,0-.03.033-.03.062-.03a.194.194,0,0,1,.126.015c.034.032.034.057-.028.115l.028.033h.091c.043.009.081-.026.154-.061.264.01.251-.214.4-.248.01.05-.1.179-.076.242.224-.061.269-.2.362-.314a1.2,1.2,0,0,1,.035-.425c.117.033.117.074.065.161s-.065.174-.052.148a.291.291,0,0,0,.142.146.3.3,0,0,0,.031-.286c0-.008.076-.054.086,0a.533.533,0,0,1,.021.246.113.113,0,0,0,.106.135.561.561,0,0,0,.307,0c-.3-.126-.244-.2-.232-.209.094-.088-.139-.259.022-.333.069.021.176.081.1.289.024.143.3.233.465.178-.075-.154-.251-.252-.24-.272.1-.211-.138-.358.031-.474.062-.044.028.09.045.277.38-.287.172-.6.251-.583.338.242-.062.329-.175.753a.572.572,0,0,0,.341.2c.035-.029-.007-.033.086-.065.062-.056.045,0,.173,0,.093-.061.222-.09.222-.15h-.063c-.066,0-.059-.031-.059-.06-.031-.121.267-.23.424-.289a16.261,16.261,0,0,1,1.5-.636.118.118,0,0,1,.093.029.261.261,0,0,1-.044.255,1.377,1.377,0,0,1-.6.132.708.708,0,0,0-.492.5c-.062.09-.017.135-.141.2v.029c.059,0,.189-.029.22-.029s-.051.081-.051.112-.065.09-.065.122c0,.057-.052.081-.21.113-.22.03-.319-.123-.537-.123a.664.664,0,0,0-.253.153c0,.116-.016.1-.174.19v.121c.062,0,.062-.029.124-.06a.227.227,0,0,1,.069.013c.031,0,.04.013.04.013.064.09-.1.1-.04.2h.031c.034-.061.045-.04.14-.071a.289.289,0,0,1,.156,0c.062.03-.01.1.019.126h.033c.031,0,.031-.029.062-.059s.052-.026.112-.026.15.019.246.019.1-.063.162-.119a.429.429,0,0,0,.283-.06c.024-.12.2-.2.351-.344a.237.237,0,0,1,.073.216c.031-.03.052-.074.083-.1.114-.136-.069-.365.041-.462.055-.081.069.152.1.239.01.03.051-.04.069-.06.048-.029-.055-.322.041-.379.055-.032.045.277.084.255.222-.121-.012-.424.4-.61.126-.058.2-.208.324-.24.1.118.046.294.117.49.034.147.158.237.379.3.158.061.155.095.155.158l.048-.008c.086-.047.079-.137.245-.126h.189c.062.032.031.062.062.122a.164.164,0,0,1-.173.2c-.125.03-.234-.008-.362.022s-.127.072-.155.151c0,.119-.007.121-.1.212,0,.031-.032.06,0,.09.064,0,.095-.059.19-.09h.033l.031.031c.094.059-.1.148,0,.21h.031a.647.647,0,0,1,.062-.062c.093-.088.3-.076.424-.106a.178.178,0,0,0,.022.065c.031,0,0,.06,0,.09a.11.11,0,0,0,.031.09c.033-.03.033-.061.06-.09a.428.428,0,0,1,.293-.077c.126-.06.158-.133.155-.211a1.937,1.937,0,0,1-.085-.58C-1027.852-3.553-1027.864-3.577-1027.736-3.516Zm-5.378-2.316a.185.185,0,0,1-.124.179h-.095v.029a.119.119,0,0,1-.064.122h-.062c-.065-.031,0-.09-.031-.151-.034,0-.062,0-.062-.028v-.063h.028c.1-.029.255,0,.348-.029C-1033.145-5.8-1033.145-5.832-1033.114-5.832Zm-.155-.131h-.124a.254.254,0,0,1-.1-.18C-1033.362-6.113-1033.333-6.023-1033.269-5.962Zm-.238,0h-.128a.256.256,0,0,1-.093-.181C-1033.6-6.107-1033.572-6.019-1033.507-5.958Zm-.255,0h-.127a.258.258,0,0,1-.095-.18C-1033.856-6.105-1033.827-6.015-1033.762-5.955Zm-.232.211h.284a.057.057,0,0,1,0,.092h-.031s-.034,0-.034.029c.034.031.065.062,0,.09V-5.5c-.031,0-.062-.031-.093-.031,0-.059.031-.09,0-.119h-.159c-.031-.059-.031-.12-.063-.179Zm-.422-.367c.038.017.062.017.107.039.063.031.063.09.032.151a.1.1,0,0,1-.094.09c-.035-.031.032-.062,0-.122,0-.029,0-.057-.062-.057A.077.077,0,0,1-1034.416-6.111Zm.3,2.323c-.058,0-.106-.1-.172-.3-.055.1-.167.016-.22-.042a.39.39,0,0,1-.142-.353c.011-.175.049-.157.095-.346.186.18-.057.33.057.514a.2.2,0,0,0,.214.147c-.018-.131,0-.226.048-.24s.05.107.083.171A1,1,0,0,1-1034.117-3.788Zm1.161-1.594c-.062.09-.189.121-.253.178a.846.846,0,0,0-.219.692c0,.06-.062.12-.189.148a.279.279,0,0,1-.19-.058c-.187-.211.065-.48-.22-.662-.031-.06,0-.121-.063-.148a.381.381,0,0,1-.248-.241c-.032-.029,0-.089-.032-.119a.167.167,0,0,1,.062-.152h.032c0,.152-.062.3.126.392a.313.313,0,0,0,.157.06c.064.061,0,.15.126.209h.127c.062-.028.093-.089.062-.121-.062-.058-.127-.117-.1-.178h.034a.273.273,0,0,1,.218,0c.034.03,0,.09,0,.121-.059.058-.093.09-.059.15.031.028.059.028.124.028a.166.166,0,0,0,.126-.06.316.316,0,0,0,.031-.15c.126-.028.252-.06.252-.151.063-.09.033-.18.033-.268h.031C-1032.862-5.623-1032.924-5.473-1032.956-5.382Zm.062-.412s-.014-.012-.031-.029c-.062-.061-.093-.1-.062-.16s.114-.058.2-.084c.052-.016-.013.108-.013.113C-1032.924-5.894-1032.862-5.853-1032.894-5.794Z" transform="translate(-5.932 -23.878)"/><path class="a" d="M-1033.524-15.9c-.028,0-.028,0-.028.029h-.031c0-.029.031-.09-.034-.119h-.031c-.093.029-.031.09-.062.119h-.031c-.034-.029,0-.029-.034-.029l-.031.061c.031.06,0,.118.065.179h.093c.031,0,.065.031.1,0C-1033.493-15.747-1033.488-15.9-1033.524-15.9Zm-.251.361c-.031.029-.031.029-.031.06a.49.49,0,0,0,.127.09.2.2,0,0,0,.128-.032c.062-.028.028-.058.028-.09A.646.646,0,0,0-1033.775-15.541Zm1.939-.534a4.285,4.285,0,0,0,1.564-.273c.093-.028.207-.015.3-.047.022.042.07-.059.07-.055a2.464,2.464,0,0,1,.466-.337c-.586.112-1.282.381-1.609.435a1.2,1.2,0,0,1-.779.037.276.276,0,0,1-.2-.222c0-.061,0-.089.062-.121h.065c.031,0,.031,0,.063.032.062.028.031.089,0,.116a.031.031,0,0,0,.031.035.222.222,0,0,0,.126-.035c.126,0,.126-.088.219-.116a.973.973,0,0,0,.286-.062,3.74,3.74,0,0,0,.345-.172v-.033a1.79,1.79,0,0,1-.565-.058,1.4,1.4,0,0,0-.617.006c-.32.166-.272.339-.262.538A.61.61,0,0,0-1031.836-16.075Zm4.1,1.619h.065c0-.049-.017-.067-.017-.129s-.234-.186-.429-.239c-.172-.217.36-.016.281-.147-.193-.217-.41-.061-.494-.157-.067-.074.19,0,.222-.074.017-.042-.083-.147-.11-.172-.093-.06-.331.012-.458-.047a.811.811,0,0,1-.189-.359,1.241,1.241,0,0,0,.516-.151.434.434,0,0,0,.135-.478c-.076-.232-.544-.287-.734-.438-.031-.089-.059-.182.035-.24-.148,0-.155.054-.274.106-.033.059-.029.1-.065.185a.835.835,0,0,0-.25.15c.031-.032-.241.3-.179.265.1-.031.152-.011.211-.038.041-.015.075,0,.117-.034.071-.056.069-.1.145-.128s-.1.12-.068.138c.062.049.086.094.172.028.034-.031.084-.116.124-.128.013.015-.131.195.093.249.031,0,.038,0,.069,0,0-.029-.007-.029.024-.061,0-.028.058-.054.12-.054a.14.14,0,0,1,.1.022c.062.025.141.079.141.139.029.061-.1.129-.214.172a1.648,1.648,0,0,1-.66-.061,2.409,2.409,0,0,0-1.158.091c-.125.029-.222.064-.315.093a4.433,4.433,0,0,1-1.185.11c-.1-.029-.3-.033-.4-.063a1.247,1.247,0,0,1-.286-.069.494.494,0,0,1-.2-.361c0-.105.14.254.16.191a.427.427,0,0,0,0-.349c-.1-.219.019-.341-.011-.555,0-.031,0-.061-.065-.061h-.155c-.1,0-.126-.06-.22-.09a1.229,1.229,0,0,1-.4-.109.249.249,0,0,0-.212,0c-.125.087-.358.049-.484.169-.06.03-.156-.028-.249,0-.133.149-.007.4-.073.576a.494.494,0,0,0-.048.355.3.3,0,0,0,.141-.049c-.01.082-.226.257-.257.394h-.095c-.282-.186-.6-.381-.665-.644.065-.211.286-.422.065-.631a.212.212,0,0,0-.065-.181c-.029,0-.062-.031-.092-.031,0,.064.03.122,0,.184h-.063c-.062-.032-.031-.017-.1-.017-.063-.028-.063-.118-.186-.15h-.031c-.034,0-.065,0-.065.032,0,0,.031,0,.031.028.1.061.1.122.034.21-.065.028-.041.067-.107.1h-.031c-.062,0-.062-.061-.127-.061-.031,0-.091,0-.091.032s0,.029.032.029c.186.119-.093.207.034.357a.583.583,0,0,0,.138.085c.031,0,.059-.032.093-.032h.06a.206.206,0,0,1,.033.149.154.154,0,0,1-.094.028c-.034,0-.034-.028-.062-.028l-.062.028c-.034,0-.034.021-.034.079,0,0,0,.032-.062.032l-.095-.032a.167.167,0,0,0,.063.153c.128.029.128.1.218.164.034.03.09.014.124.014.091-.031.081-.06.145-.089,0,0,.11.014.11.042.031.063.059.095.024.156-.031.03-.031.03-.124.06a.112.112,0,0,1-.064-.03h-.061c.061.089.045.122.107.18.176.062.42-.013.489.029.03.017.073.033.09.071-.1-.045-.352-.053-.4,0-.014.018.1.132.121.142.148.065.426-.009.434.032.041.018.131.072.1.072-.082,0-.334-.072-.379-.006s.1.252.52.17c.04-.008.08.055.114.069a1.758,1.758,0,0,0-.295.02.533.533,0,0,0,.209.245,2.536,2.536,0,0,1-.725.393.344.344,0,0,1-.24.01.5.5,0,0,0-.282-.029c-.093.061-.158.122-.158.18a.706.706,0,0,0-.136.2c.06.118-.084.178-.084.3a.031.031,0,0,0,.034.031v-.031c.062-.028.093-.059.159-.059h.062c.06-.028.127-.065.131.023.033.06-.062.121-.031.179h.031a.086.086,0,0,1,.033-.058.439.439,0,0,1,.219-.061c.127.029.09-.019.186-.05h.094c.091.062.06.09,0,.151h.06c.127-.029.031-.135.224-.135.188-.09.033-.274.156-.364,0-.029.033-.029.062-.029a.192.192,0,0,1,.126.015c.034.03.034.057-.028.115l.028.032h.091c.043.007.081-.025.154-.06.264.009.251-.215.4-.25.01.053-.1.18-.076.243.224-.061.269-.2.362-.313a1.2,1.2,0,0,1,.035-.425c.117.033.117.073.065.16s-.065.174-.052.147a.29.29,0,0,0,.142.147.3.3,0,0,0,.031-.286c0-.008.076-.054.086,0a.532.532,0,0,1,.021.245.114.114,0,0,0,.106.137.554.554,0,0,0,.307,0c-.3-.127-.244-.2-.232-.209.094-.087-.139-.259.022-.334.069.023.176.08.1.288.024.144.3.232.465.179-.075-.154-.251-.252-.24-.274.1-.209-.138-.358.031-.472.062-.046.028.089.045.276.38-.286.172-.6.251-.583.338.244-.062.329-.175.754a.567.567,0,0,0,.341.194c.035-.028-.007-.031.086-.065.062-.056.045,0,.173,0,.093-.06.222-.089.222-.15h-.063c-.066,0-.059-.029-.059-.058-.031-.122.267-.23.424-.29.565-.179,1.258-.651,1.5-.636a.121.121,0,0,1,.093.028.263.263,0,0,1-.044.256,1.4,1.4,0,0,1-.6.133.7.7,0,0,0-.492.5c-.062.092-.017.136-.141.2v.029c.059,0,.189-.029.22-.029s-.051.081-.051.112-.065.09-.065.121c0,.057-.052.082-.21.113-.22.03-.319-.123-.537-.123a.683.683,0,0,0-.253.153c0,.118-.016.1-.174.191v.12c.062,0,.062-.029.124-.06a.239.239,0,0,1,.069.012c.031,0,.04.015.04.015.064.088-.1.1-.04.195h.031c.034-.061.045-.042.14-.071a.289.289,0,0,1,.156,0c.062.029-.01.1.019.126h.033c.031,0,.031-.028.062-.06s.052-.024.112-.024.15.019.246.019.1-.064.162-.121a.433.433,0,0,0,.283-.06c.024-.119.2-.2.351-.344a.236.236,0,0,1,.073.216c.031-.03.052-.075.083-.1.114-.138-.069-.364.041-.464.055-.08.069.153.1.24.01.029.051-.04.069-.058.048-.031-.055-.322.041-.381.055-.031.045.278.084.255.222-.119-.012-.423.4-.608.126-.06.2-.209.324-.239.1.117.046.292.117.488.034.149.158.239.379.3.158.06.155.1.155.157l.048-.007c.086-.047.079-.138.245-.127h.189c.062.032.031.062.062.122a.165.165,0,0,1-.173.2c-.125.03-.234-.008-.362.022s-.127.071-.155.151c0,.12-.007.121-.1.211,0,.032-.032.061,0,.091.064,0,.095-.059.19-.091h.033l.031.032c.094.059-.1.149,0,.21h.031a.739.739,0,0,1,.062-.061c.093-.089.3-.076.424-.107a.174.174,0,0,0,.022.064c.031,0,0,.06,0,.09a.108.108,0,0,0,.031.089c.033-.03.033-.06.06-.089a.42.42,0,0,1,.293-.076c.126-.061.158-.135.155-.212a1.928,1.928,0,0,1-.085-.58C-1027.852-14.492-1027.864-14.515-1027.736-14.456Zm-5.378-2.316a.186.186,0,0,1-.124.181h-.095v.029a.12.12,0,0,1-.064.121h-.062c-.065-.032,0-.091-.031-.15-.034,0-.062,0-.062-.029v-.062h.028c.1-.029.255,0,.348-.029C-1033.145-16.741-1033.145-16.772-1033.114-16.772Zm-.155-.129h-.124a.258.258,0,0,1-.1-.182C-1033.362-17.053-1033.333-16.963-1033.269-16.9Zm-.238,0h-.128a.258.258,0,0,1-.093-.18C-1033.6-17.046-1033.572-16.958-1033.507-16.9Zm-.255,0h-.127a.25.25,0,0,1-.095-.18C-1033.856-17.045-1033.827-16.953-1033.762-16.895Zm-.232.213h.284a.057.057,0,0,1,0,.092h-.031s-.034,0-.034.029c.034.03.065.06,0,.09v.032c-.031,0-.062-.032-.093-.032,0-.06.031-.09,0-.119h-.159c-.031-.06-.031-.12-.063-.181Zm-.422-.368c.038.017.062.017.107.039.063.03.063.09.032.151a.1.1,0,0,1-.094.089c-.035-.03.032-.06,0-.121,0-.028,0-.058-.062-.058A.077.077,0,0,1-1034.416-17.05Zm.3,2.322c-.058,0-.106-.1-.172-.3-.055.1-.167.016-.22-.042a.39.39,0,0,1-.142-.353c.011-.174.049-.155.095-.345.186.18-.057.329.057.513a.2.2,0,0,0,.214.147c-.018-.131,0-.225.048-.24s.05.106.083.17A.994.994,0,0,1-1034.117-14.728Zm1.161-1.594c-.062.09-.189.121-.253.179a.847.847,0,0,0-.219.693c0,.06-.062.119-.189.148a.283.283,0,0,1-.19-.058c-.187-.212.065-.481-.22-.662-.031-.059,0-.121-.063-.148a.384.384,0,0,1-.248-.24c-.032-.029,0-.09-.032-.121a.166.166,0,0,1,.062-.151h.032c0,.151-.062.3.126.392a.321.321,0,0,0,.157.058c.064.061,0,.15.126.209h.127c.062-.028.093-.089.062-.121-.062-.058-.127-.117-.1-.179h.034a.273.273,0,0,1,.218,0c.034.032,0,.09,0,.121-.059.058-.093.09-.059.151.031.028.059.028.124.028a.167.167,0,0,0,.126-.059.319.319,0,0,0,.031-.15c.126-.028.252-.058.252-.151.063-.09.033-.179.033-.269h.031C-1032.862-16.562-1032.924-16.411-1032.956-16.322Zm.062-.412a.353.353,0,0,1-.031-.029c-.062-.06-.093-.1-.062-.158s.114-.06.2-.085c.052-.015-.013.109-.013.113C-1032.924-16.831-1032.862-16.792-1032.894-16.734Z" transform="translate(-5.932 -16.96)"/><path class="a" d="M-1033.524-26.79c-.028,0-.028,0-.028.03h-.031c0-.03.031-.091-.034-.121h-.031c-.093.029-.031.09-.062.121h-.031c-.034-.03,0-.03-.034-.03l-.031.06c.031.06,0,.119.065.179h.093c.031,0,.065.032.1,0C-1033.493-26.637-1033.488-26.787-1033.524-26.79Zm-.251.361c-.031.029-.031.029-.031.06a.482.482,0,0,0,.127.09.2.2,0,0,0,.128-.031c.062-.029.028-.059.028-.089A.638.638,0,0,0-1033.775-26.429Zm1.939-.535a4.313,4.313,0,0,0,1.564-.272c.093-.029.207-.016.3-.047.022.04.07-.059.07-.056a2.539,2.539,0,0,1,.466-.338c-.586.113-1.282.382-1.609.434a1.2,1.2,0,0,1-.779.04.278.278,0,0,1-.2-.224c0-.061,0-.09.062-.121h.065c.031,0,.031,0,.063.031.062.029.031.09,0,.118a.031.031,0,0,0,.031.034.225.225,0,0,0,.126-.034c.126,0,.126-.089.219-.118a.993.993,0,0,0,.286-.06,3.464,3.464,0,0,0,.345-.175v-.03a1.835,1.835,0,0,1-.565-.058,1.4,1.4,0,0,0-.617.005c-.32.166-.272.338-.262.537A.6.6,0,0,0-1031.836-26.964Zm4.1,1.621h.065c0-.05-.017-.067-.017-.13s-.234-.186-.429-.24c-.172-.217.36-.015.281-.146-.193-.217-.41-.064-.494-.158-.067-.074.19,0,.222-.074.017-.041-.083-.147-.11-.171-.093-.062-.331.011-.458-.047a.822.822,0,0,1-.189-.36,1.211,1.211,0,0,0,.516-.153.431.431,0,0,0,.135-.477c-.076-.231-.544-.287-.734-.437-.031-.09-.059-.183.035-.242-.148,0-.155.055-.274.106-.033.061-.029.106-.065.185a.888.888,0,0,0-.25.15c.031-.032-.241.294-.179.264.1-.03.152-.01.211-.038.041-.014.075,0,.117-.033.071-.054.069-.1.145-.128s-.1.12-.068.139c.062.048.086.093.172.026.034-.033.084-.119.124-.129.013.014-.131.2.093.248.031,0,.038,0,.069,0,0-.029-.007-.029.024-.062,0-.029.058-.054.12-.054a.143.143,0,0,1,.1.023c.062.025.141.08.141.139.029.06-.1.128-.214.171a1.64,1.64,0,0,1-.66-.06,2.411,2.411,0,0,0-1.158.09c-.125.03-.222.064-.315.093a4.344,4.344,0,0,1-1.185.11c-.1-.028-.3-.034-.4-.062a1.264,1.264,0,0,1-.286-.07.493.493,0,0,1-.2-.362c0-.1.14.254.16.192a.431.431,0,0,0,0-.351c-.1-.218.019-.339-.011-.553,0-.032,0-.061-.065-.061h-.155c-.1,0-.126-.059-.22-.091a1.249,1.249,0,0,1-.4-.108.248.248,0,0,0-.212-.005c-.125.087-.358.047-.484.169-.06.03-.156-.028-.249,0-.133.149-.007.4-.073.577a.492.492,0,0,0-.048.354.3.3,0,0,0,.141-.049c-.01.083-.226.256-.257.394h-.095c-.282-.186-.6-.382-.665-.643.065-.211.286-.424.065-.633a.206.206,0,0,0-.065-.179c-.029,0-.062-.031-.092-.031,0,.062.03.121,0,.182h-.063c-.062-.031-.031-.017-.1-.017-.063-.029-.063-.118-.186-.151h-.031c-.034,0-.065,0-.065.033a.03.03,0,0,1,.031.031c.1.058.1.121.034.208-.065.029-.041.068-.107.1h-.031c-.062,0-.062-.06-.127-.06-.031,0-.091,0-.091.032s0,.028.032.028c.186.119-.093.209.034.359a.562.562,0,0,0,.138.083c.031,0,.059-.032.093-.032h.06a.208.208,0,0,1,.033.148.149.149,0,0,1-.094.029c-.034,0-.034-.029-.062-.029l-.062.029c-.034,0-.034.02-.034.08,0,0,0,.032-.062.032l-.095-.032a.166.166,0,0,0,.063.152c.128.029.128.1.218.164.034.028.09.014.124.014.091-.032.081-.061.145-.09,0,0,.11.015.11.044.031.06.059.094.024.155-.031.029-.031.029-.124.06a.111.111,0,0,1-.064-.031h-.061c.061.09.045.122.107.182.176.06.42-.015.489.028.03.018.073.034.09.071-.1-.044-.352-.053-.4,0-.014.019.1.132.121.142.148.065.426-.008.434.031.041.019.131.072.1.072-.082,0-.334-.071-.379-.006s.1.251.52.17c.04-.008.08.056.114.069a1.632,1.632,0,0,0-.295.021.532.532,0,0,0,.209.245,2.516,2.516,0,0,1-.725.391.341.341,0,0,1-.24.011.479.479,0,0,0-.282-.029c-.093.06-.158.121-.158.179a.729.729,0,0,0-.136.2c.06.119-.084.179-.084.3a.032.032,0,0,0,.034.031v-.031a.35.35,0,0,1,.159-.058h.062c.06-.029.127-.067.131.022.033.06-.062.121-.031.18h.031a.088.088,0,0,1,.033-.06.451.451,0,0,1,.219-.06c.127.029.09-.019.186-.05h.094c.091.06.06.092,0,.151h.06c.127-.028.031-.135.224-.135.188-.09.033-.275.156-.364,0-.028.033-.028.062-.028a.19.19,0,0,1,.126.015c.034.032.034.056-.028.116l.028.031h.091c.043.01.081-.025.154-.058.264.008.251-.215.4-.25.01.051-.1.178-.076.242.224-.062.269-.2.362-.315a1.2,1.2,0,0,1,.035-.424c.117.032.117.073.065.161s-.065.174-.052.147a.3.3,0,0,0,.142.146.3.3,0,0,0,.031-.286c0-.008.076-.055.086,0a.526.526,0,0,1,.021.244.114.114,0,0,0,.106.136.568.568,0,0,0,.307,0c-.3-.126-.244-.2-.232-.209.094-.088-.139-.26.022-.333.069.021.176.081.1.287.024.143.3.233.465.178-.075-.153-.251-.252-.24-.273.1-.211-.138-.357.031-.473.062-.044.028.09.045.277.38-.287.172-.6.251-.584.338.243-.062.328-.175.753a.571.571,0,0,0,.341.2c.035-.029-.007-.032.086-.065.062-.056.045,0,.173,0,.093-.061.222-.089.222-.15h-.063c-.066,0-.059-.029-.059-.06-.031-.12.267-.23.424-.289a15.729,15.729,0,0,1,1.5-.636.123.123,0,0,1,.093.028.263.263,0,0,1-.044.256,1.387,1.387,0,0,1-.6.132.707.707,0,0,0-.492.5c-.062.092-.017.135-.141.2v.029c.059,0,.189-.029.22-.029s-.051.08-.051.111-.065.089-.065.122c0,.058-.052.081-.21.114-.22.029-.319-.123-.537-.123a.672.672,0,0,0-.253.153c0,.117-.016.1-.174.19v.121c.062,0,.062-.028.124-.059a.245.245,0,0,1,.069.012c.031,0,.04.014.04.014.064.089-.1.1-.04.194h.031c.034-.06.045-.04.14-.069.033,0,.1-.029.156,0s-.01.1.019.125h.033c.031,0,.031-.029.062-.06s.052-.025.112-.025.15.019.246.019.1-.063.162-.121a.435.435,0,0,0,.283-.06c.024-.119.2-.2.351-.344a.239.239,0,0,1,.073.217c.031-.03.052-.073.083-.1.114-.136-.069-.365.041-.462.055-.081.069.152.1.24.01.028.051-.04.069-.06.048-.03-.055-.322.041-.379.055-.032.045.277.084.255.222-.121-.012-.424.4-.61.126-.058.2-.207.324-.239.1.117.046.292.117.488.034.148.158.239.379.3.158.061.155.1.155.158l.048-.008c.086-.046.079-.136.245-.125h.189c.062.03.031.061.062.121a.165.165,0,0,1-.173.2c-.125.031-.234-.008-.362.022s-.127.071-.155.151c0,.119-.007.121-.1.212,0,.031-.032.06,0,.092.064,0,.095-.061.19-.092h.033l.031.031c.094.061-.1.149,0,.21h.031c.029-.03.029-.03.062-.061.093-.088.3-.076.424-.106a.2.2,0,0,0,.022.065c.031,0,0,.058,0,.089a.107.107,0,0,0,.031.09c.033-.03.033-.058.06-.09a.428.428,0,0,1,.293-.076c.126-.06.158-.133.155-.211a1.941,1.941,0,0,1-.085-.58C-1027.852-25.38-1027.864-25.4-1027.736-25.343Zm-5.378-2.316a.185.185,0,0,1-.124.179h-.095v.03a.119.119,0,0,1-.064.121h-.062c-.065-.031,0-.091-.031-.151-.034,0-.062,0-.062-.029v-.06h.028c.1-.03.255,0,.348-.03C-1033.145-27.63-1033.145-27.659-1033.114-27.659Zm-.155-.133h-.124a.249.249,0,0,1-.1-.179C-1033.362-27.941-1033.333-27.85-1033.269-27.792Zm-.238.007h-.128a.257.257,0,0,1-.093-.182C-1033.6-27.935-1033.572-27.847-1033.507-27.785Zm-.255,0h-.127a.254.254,0,0,1-.095-.181C-1033.856-27.933-1033.827-27.841-1033.762-27.782Zm-.232.213h.284a.055.055,0,0,1,0,.09h-.031s-.034,0-.034.03c.034.029.065.06,0,.09v.031c-.031,0-.062-.031-.093-.031,0-.06.031-.09,0-.12h-.159c-.031-.059-.031-.12-.063-.179Zm-.422-.369c.038.016.062.016.107.039.063.03.063.091.032.151a.1.1,0,0,1-.094.089c-.035-.03.032-.062,0-.121,0-.028,0-.058-.062-.058A.076.076,0,0,1-1034.416-27.938Zm.3,2.323c-.058,0-.106-.1-.172-.3-.055.1-.167.017-.22-.042a.389.389,0,0,1-.142-.353c.011-.173.049-.157.095-.347.186.183-.057.329.057.515a.2.2,0,0,0,.214.147c-.018-.131,0-.225.048-.24s.05.107.083.17A1,1,0,0,1-1034.117-25.615Zm1.161-1.594c-.062.09-.189.121-.253.178a.842.842,0,0,0-.219.692c0,.06-.062.121-.189.15a.275.275,0,0,1-.19-.059c-.187-.211.065-.481-.22-.661-.031-.06,0-.121-.063-.151a.374.374,0,0,1-.248-.239c-.032-.029,0-.09-.032-.121a.161.161,0,0,1,.062-.149h.032c0,.149-.062.3.126.389a.316.316,0,0,0,.157.061c.064.058,0,.149.126.209h.127c.062-.03.093-.089.062-.121-.062-.058-.127-.118-.1-.178h.034a.264.264,0,0,1,.218,0c.034.029,0,.09,0,.121-.059.058-.093.09-.059.149.031.03.059.03.124.03a.17.17,0,0,0,.126-.06.315.315,0,0,0,.031-.149c.126-.03.252-.061.252-.153.063-.089.033-.178.033-.267h.031C-1032.862-27.45-1032.924-27.3-1032.956-27.209Zm.062-.412s-.014-.012-.031-.029c-.062-.062-.093-.1-.062-.158s.114-.061.2-.085c.052-.017-.013.109-.013.114C-1032.924-27.721-1032.862-27.68-1032.894-27.621Z" transform="translate(-5.932 -10.074)"/><path class="b" d="M-1025.035-28.18a29.9,29.9,0,0,1-2.887-2.1,5.96,5.96,0,0,0,1.345,4.664A8.8,8.8,0,0,1-1025.035-28.18Zm21.773-3.26A3.27,3.27,0,0,0-1006-33.135a4.265,4.265,0,0,0-2.358,1.366c-3.049,3.744-2.956,9.9-1.18,14.33-.362.409-.915.108-1.308,0a4.406,4.406,0,0,1-2.3-3.117,4.825,4.825,0,0,0,.684,3.954c1,1.739,2.887,1.827,4,2.588.138.244.32.793-.126.782a1.412,1.412,0,0,0-1.484-.721,1.233,1.233,0,0,0-.776.755,1.642,1.642,0,0,0,.3,1.557l.419-.684a1.35,1.35,0,0,1,1.385-.3,1.02,1.02,0,0,1,.484,1.182,2.582,2.582,0,0,1-1.474,1.558,2.471,2.471,0,0,1-2.859-.757c-1.707-3.32-4.451-4.3-3.021-8.264a4.983,4.983,0,0,1-1.252-2.316,4.569,4.569,0,0,0-.348,1.881,1.624,1.624,0,0,1-.789-.227,3.284,3.284,0,0,1-1.516-2.933c-1.443,2.3-4.342.989-5.443.986.427-.633,1.39-1.7,1.514-2.053a6.9,6.9,0,0,1-3.707.8c-1.469,2.135-4.406,1.342-6.12,2.982a7.423,7.423,0,0,0-2.325-1.769,2.131,2.131,0,0,0-2.21.871l.851-.18c.527.3-.1.657.181.983.581.521,1.7-.391,1.7.594-.768.716-1.528-.534-2.763.26a1.744,1.744,0,0,0-.389,1.63l.851-.651c1.137,1.633,1.769-.225,3-.319.486-.165.558.179.474.455-.474.334-1.633.411-2.06,1.113-.282.542.333,1.464.832,1.874a.948.948,0,0,1,.419-1.013,1.779,1.779,0,0,1,.949.047c.985-.007.334-1.122,1.018-1.362,1.033.4.891-1.7,1.989-1.355.464.7-1.216,1.276-1.131,2.638.021.206.685-.128.952-.178.307-.055.534-.118.591-.24.512-.77.745-2.073,1.554-2.686a.249.249,0,0,1,.222.191c-.222.847-1.031,1.519-1.031,2.395a3.341,3.341,0,0,0,1.164-.358,6.044,6.044,0,0,1,1.5-2.774.344.344,0,0,1,.392.146c-.143.46-1.281,1.362-1.3,2.532.5-.189,1.016-.213,1.27-.467.718-.728.418-2.01,1.423-2.591a.269.269,0,0,1,.45.114c.022.768-1.146,1.212-1.225,2.348.329-.108,1.08.11,1.469-.164.415-.9.541-1.994,1.371-2.731,1.032.183-.512,1.018-.374,1.728l1.485-.287c.14-.633.012-1.381.7-1.634l.317.115c.22.627-.251,1.093-.475,1.638-.442.573-1.3.369-1.854.7a9.908,9.908,0,0,0,3.339,3.87c2.3,2.626-.931,5.106-.856,7.381-.017.844.969.786,1.4.844.126.016.145.176.108.309-.11.136-.348.121-.629.094a2.983,2.983,0,0,0-.875-.029c-.138.055-.422.188-.4.379.048.2.467.359.683.6.765.3,1.757-.736,2.228-.055.114.193-.069.215-.152.3-.427.055-1.4-.047-1.74.32.219.237.562.6.827.6.4,0,.869-.286,1.288-.286.867.779-.749.3-.944.765l.61.794a.681.681,0,0,0,.75-.108c.539-.261.828.014,1.193.2a1.172,1.172,0,0,1,.081,1.08c-.508.538-1.64,1.433-2.041,1.846-.73.726-.689,1.311-2.131,1.728-1.006.607-1.309-.56-2.194-.5-.333.045-.887.14-.97.6a2.15,2.15,0,0,0,.1,1.378l.329-.337c.665-.438,1.443-.055,2.053.217.053.138.12.058.062.165a.862.862,0,0,1-.911-.044c-.388,0-.749,0-.97.272a1.652,1.652,0,0,0-.443,1.585c.618-.827,1.729.048,2.1-.391.443-.107.634-.811,1.131-.46.195.493-.274.6-.5.929a.548.548,0,0,0,.165.849.5.5,0,0,1,0,.708,3.184,3.184,0,0,0,1.5-.627c.47-.3.295-.891.238-1.383.113-.3.341-.412.735-.368.572.029-.256-1.36.417-1.589.847.123.046,1.5.568,1.967.35-.272.594-.383.677-.632.243-.746-.563-2.2.131-2.482.806-.193-.088,1.329.551,1.9a4.435,4.435,0,0,1,.763-.447c.521-.673-.37-1.59.138-2.57.055-.108.195-.325.39-.245.5.684-.39,1.386.165,1.986.3-.491.883-.694.954-1.121-.051-.343-.885-1.686-.325-2.377.532-.117.472.968.554,1.556a2.779,2.779,0,0,0,.259.573c.241-.513.612-.627.7-.923a2.067,2.067,0,0,0-.246-1.419c-.247-.6-.712-1.464-.169-1.792.667.219.372,1.173.675,1.375.453-.133.7-.691,1.025-1.064.415-.8-.7-.618-.99-1.051a7.224,7.224,0,0,0-2.555-2.756,12.855,12.855,0,0,0-.174-4.834c-.026-.245-.481-.279-.372-.578-.055-.193.041-.456.291-.348a2.722,2.722,0,0,1,.78,2.158,5.131,5.131,0,0,0,1.783,1.318,4.283,4.283,0,0,0,4.394-1.09,5.185,5.185,0,0,0,.906-4.536c-.722-3.882-2.725-7.234-2.31-11.578.415-1.666.834-3.645,1.97-5.01a1.918,1.918,0,0,1,1.792-.655,1.4,1.4,0,0,1,.87.929c.468,1.773-.305,4.13-1.673,4.7a2,2,0,0,1-1.717-.631,2.749,2.749,0,0,0,.635,2.305c.717.791,1.532-.107,1.83.19-.221.71-1.111.59-1.469,1.218-1.416,2.6,1.7,3.695,2.794,5.714.437.411.848,1.635,1.233,1.383.289-.091-.479-1.4-.73-2.083C-1005.393-22.237-1001.093-26.54-1003.262-31.44Zm-17.691,17.93c.069.317.577.158.825.677a2.281,2.281,0,0,0,.42.486l.032-.486a4.639,4.639,0,0,0-.337-.78c-.209-.191-.35-.62-.984-.818l.038.221C-1020.951-13.925-1020.98-13.629-1020.953-13.51Zm-2.792,7.653c-.327-.6-.629-1.28-.244-1.757a2.4,2.4,0,0,0,.411-1.638c-.253-.281-1,.171-.727-.539,1.209-.277,2.3.832,3.433.944l1.045-2.832-.143-.281c-.82-1.424-1.612-.469-1.4-1.867l-.11-.842c-2.034.952-4.3-.67-5.77,1.262-.51.786.6,1.1.486,1.817-.76.042-.88-1.244-1.707-1.409-.281.19-.153,1.228-.141,1.683.439.431,1.324.365,1.635.9.164.291.133.409-.224.4-.558-.018-.965-.778-1.469-.707a5.954,5.954,0,0,0,.005.9,2.955,2.955,0,0,1,1.581,1.1c-.159.855-.641-.525-1.657-.632a3.88,3.88,0,0,0,.026.839c.055.162,1.425.434,1.368,1.042-.033.033-.006.108-.039.134-.476.373-.813-.4-1.237-.586a7.95,7.95,0,0,1-1.411.09,3.349,3.349,0,0,1-2.867-1.207,1.933,1.933,0,0,0-1.962-.477c-.31.364-.992.477-.937,1.122a.538.538,0,0,0,.451-.226c.234-.038.485-.019.545.226-.2,1.071,1.726.217,1.927,1.221a.35.35,0,0,1-.309.211c-.758.065-.794-.555-1.3-.464-.312-.007-.262-.127-.994.352-.283.281-.675.884-.477,1.275l.339-.405c.441-.288.76.261.961.384.6.308.825-.193,1.251-.417a.377.377,0,0,1,.606.3c-.369.842-1.886.246-2.055.873a1.436,1.436,0,0,0,.2,1.424.706.706,0,0,1,.71-.368c1.351.4,1.428-1.361,2.384-1.69a.318.318,0,0,1,.421.144c.151.444-.837.646-.906,1.52.032.241.3-.062.444-.008.708.267.985-1.125,1.7-1.576.2-.148.592-.5.82-.117-.105.589-.634.579-1.617,1.864.542-.155.983.227,1.268,0,.627-.485.925-1.472,1.54-1.727.138-.093.315-.188.485.053a5.121,5.121,0,0,1-.833.973,8.894,8.894,0,0,0-.6.792,5.349,5.349,0,0,0,1.3.035,6.359,6.359,0,0,1,1.417-1.75c.115-.083.37-.083.426.086-.115.53-.686.78-1.084,1.681l1.144-.238c.787-.4.536-.966.71-1.5.2-.173.332-.164.372-.067a2.188,2.188,0,0,1,.031.672c.131-.107.165-.035.329-.133A.75.75,0,0,0-1023.745-5.857Zm.6-18.307a18.81,18.81,0,0,1,4.5-3.609c.323,0,.675-.322.937,0-.057.119-.057.206-.143.294-2.744.71-4.672,2.92-6.38,5.535l.947.319c3.852,1,4.077-3.214,6.334-4.447.176.058.41.236.325.442a4.2,4.2,0,0,0-2.485,3.244,2.729,2.729,0,0,0,1.435,2.552,6.581,6.581,0,0,1,1.554-3.139c.146-.118.367-.264.545.06l-.72.908c-.549.811.494,2.727,1.666,3.4-.029-1.585.541-2.081.985-3.518a5.172,5.172,0,0,0-.468-3.58c.024-.176.141-.47.434-.351.437,1.033.661,2.181,1.628,2.68-.37-2.027.722-2.98.253-4.652-.117-.527-.765-1.671-.233-1.768.524-.051.5,1.553,1.38,1.553-.349-2.111,1.13-4.386-.375-5.921-.443-.177-.327.353-.527.53-.15-.06-.3.028-.355-.119a3.384,3.384,0,0,0,.439-1.73,2.044,2.044,0,0,0-1.886-.934c-.5-.059-.245.647-.629.616a.646.646,0,0,1-.277-.5,3.069,3.069,0,0,0-2.422-1.106c-.589.029-.353.613-.469.906a9.2,9.2,0,0,0-3.894-.612c-.029.47.353.791.558,1.144-.088.145-.325.023-.5.023a3.427,3.427,0,0,0,.529,1.821c.441.147.327-.41.679-.5a2.435,2.435,0,0,1,2.017-.033,1,1,0,0,1-.279,1.424c-.414.616.289,1.541-.2,1.909-.262.1-.663-.2-1.058-.168-.813.077-1.38.052-1.535-.764-.642.147-.751.967-.92,1.561.272.307.925-.037,1.185.113,1.171.908,2.415.56,3.707.207.935-.235,1.373-1.086,2.253-1.5.422-.122.236.355.205.531-2.465,2.49-6.287,1.609-9.422,2.841-2.055,1.146-2.308,3.427-3.157,5.393A5.592,5.592,0,0,0-1023.142-24.164Zm10.156-11.51c.418-.146.627.206.894.467,0,.15.029.3-.15.415-.269-.117-.2-.558-.593-.415-.358.032,0,.56-.448.472A.706.706,0,0,1-1012.985-35.674Zm-3.3.871c-.053.048-.219.005-.295.05a1.077,1.077,0,0,1,.214-1.073c.069-.006.219-.04.278.067.351.662.94.5,1.151,1.065C-1015.688-34.425-1015.6-35.41-1016.283-34.8Z" transform="translate(-4.732 -4.282)"/><path class="b" d="M-998.9-30.733c1.62.39,3.653.019,4.008,2.03a2.42,2.42,0,0,0-1.833-.986,24.953,24.953,0,0,1-3.246-.2,1.939,1.939,0,0,1-.741-1.707.97.97,0,0,1,.678-.817c.361.679.275,1.381,1.134,1.677Z" transform="translate(-28.506 -7.445)"/></g></svg>